# xmcd
#
# Track frame offsets:
#	150
#	21387
#	44112
#	64412
#	86825
#	104075
#	128425
#	149250
#	171762
#	192425
#	213787
#	230837
#	253275
#	266450
#	287375
#	307750
#
# Disc length: 4379 seconds
#
# Revision: 1
# Processed by: cddbd v1.5.2PL0 Copyright (c) Steve Scherf et al.
# Submitted via: EZCDAudioConverter 2.2.2.1
#
DISCID=f3111910
DTITLE=草蜢 - 環球2000新巨星系列
DYEAR=2000
DGENRE=HK-Pop
TTITLE0=草蜢 - 對一個人愛错
TTITLE1=草蜢 - 暫停,開始過
TTITLE2=草蜢 - 世界會變得很美
TTITLE3=草蜢 - Lonely
TTITLE4=草蜢 - 半點心
TTITLE5=草蜢 - 不安全感
TTITLE6=草蜢 - 情歌
TTITLE7=草蜢 - 斷句
TTITLE8=草蜢 - 有緣來做伙(國)
TTITLE9=草蜢 - 一加一加一的愛
TTITLE10=草蜢 - 暗戀的代價
TTITLE11=草蜢 - 再見Rainy Days
TTITLE12=草蜢 - 失戀
TTITLE13=草蜢、關淑怡 - So Sad
TTITLE14=草蜢 - La La Means I Love You
TTITLE15=草蜢 - 心中的歌
EXTD=
EXTT0=
EXTT1=
EXTT2=
EXTT3=
EXTT4=
EXTT5=
EXTT6=
EXTT7=
EXTT8=
EXTT9=
EXTT10=
EXTT11=
EXTT12=
EXTT13=
EXTT14=
EXTT15=
PLAYORDER=
